<svg fill="none" height="512" viewBox="0 0 100 100" width="512" xmlns="http://www.w3.org/2000/svg" xmlns:xlink="http://www.w3.org/1999/xlink"><linearGradient id="paint0_linear_1031_1840" gradientUnits="userSpaceOnUse" x1="8.396" x2="45.713" y1="18.456" y2="102.033"><stop offset="0" stop-color="#4fbac0"/><stop offset="1" stop-color="#3b6ed2"/></linearGradient><linearGradient id="paint1_linear_1031_1840" gradientUnits="userSpaceOnUse" x1="14.233" x2="73.222" y1="74.935" y2="40.199"><stop offset="0" stop-color="#d7f7f5"/><stop offset="1" stop-color="#c1e3ee"/></linearGradient><linearGradient id="paint2_linear_1031_1840" gradientUnits="userSpaceOnUse" x1="35.55" x2="72.291" y1="26.793" y2="62.123"><stop offset="0" stop-color="#97e8e3"/><stop offset="1" stop-color="#91c8da"/></linearGradient><linearGradient id="paint3_linear_1031_1840" gradientUnits="userSpaceOnUse" x1="47.022" x2="63.192" y1="38.09" y2="44.195"><stop offset="0" stop-color="#35d8c4"/><stop offset="1" stop-color="#42a0b5"/></linearGradient><path d="m39.9404 81.5439c-17.4212 0-31.54391-14.1227-31.54392-31.5439 0-17.4212 14.12272-31.5439 31.54392-31.5439h40.5135c3.839 0 6.9511 3.1121 6.9511 6.951 0 3.839-3.1121 6.9511-6.9511 6.9511h-4.9432c-2.5823 0-4.6757 2.0934-4.6757 4.6757s2.0934 4.6757 4.6757 4.6757h7.5904c4.6951 0 8.5013 3.8062 8.5013 8.5014 0 4.6951-3.8062 8.5013-8.5013 8.5013h-10.4168c-3.0547 0-5.5309 2.4762-5.5309 5.5309 0 3.0546 2.4762 5.5309 5.5309 5.5309h2.1219c3.2502 0 5.8849 2.6348 5.8849 5.8849 0 3.2502-2.6347 5.8849-5.8849 5.8849z" fill="url(#paint0_linear_1031_1840)"/><path d="m17.3676 56.4429c-1.9806-4.1128-1.9806-8.9037 0-13.0165l3.1443-6.5292c1.9807-4.1129 5.7263-7.0999 10.1768-8.1157l7.0652-1.6126c4.4504-1.0158 9.1212.0503 12.6902 2.8964l5.6659 4.5184c3.5689 2.8462 5.6476 7.1626 5.6476 11.7275v7.247c0 4.5648-2.0787 8.8813-5.6476 11.7274l-5.6659 4.5184c-3.569 2.8462-8.2398 3.9123-12.6902 2.8965l-7.0652-1.6126c-4.4505-1.0158-8.1961-4.0029-10.1768-8.1157z" fill="url(#paint1_linear_1031_1840)"/><path d="m35.5498 72.1973 2.2045.5032c4.4504 1.0157 9.1212-.0503 12.6901-2.8965l5.6659-4.5184c3.569-2.8461 5.6477-7.1626 5.6477-11.7274v-7.247c0-4.5649-2.0787-8.8813-5.6476-11.7275l-5.6659-4.5184c-3.569-2.8461-8.2398-3.9122-12.6902-2.8964l-2.2045.5031c1.5349.55 2.9872 1.3527 4.2921 2.3933l5.6659 4.5184c3.569 2.8462 5.6477 7.1626 5.6477 11.7275v7.247c0 4.5648-2.0787 8.8813-5.6477 11.7274l-5.6659 4.5184c-1.3049 1.0407-2.7572 1.8434-4.2921 2.3933z" fill="url(#paint2_linear_1031_1840)"/><g fill="url(#paint3_linear_1031_1840)"><path d="m51.1665 38.5991c-.8233-.7365-2.0876-.6661-2.8241.1571-.7364.8232-.6661 2.0876.1571 2.8241 1.271 1.137 2.2677 2.5473 2.9151 4.125.6474 1.5776.9287 3.2815.8227 4.9835-.0686 1.1025.7694 2.0518 1.8719 2.1204 1.1024.0687 2.0518-.7694 2.1204-1.8718.1435-2.3056-.2375-4.6136-1.1145-6.7507-.8769-2.137-2.227-4.0475-3.9486-5.5876z"/><path d="m53.1335 59.2483c.6694-.8787.4998-2.1336-.3789-2.803-.8786-.6694-2.1335-.4997-2.8029.3789-.6144.8065-1.3346 1.5264-2.1414 2.1404-.8789.669-1.0492 1.9238-.3802 2.8028.669.8789 1.9238 1.0491 2.8028.3802 1.0927-.8317 2.0684-1.807 2.9006-2.8993z"/></g></svg>